<?xml version="1.0" encoding="UTF-8"?>
<svg width="176px" height="30px" viewBox="0 0 176 30" version="1.1" xmlns="http://www.w3.org/2000/svg" xmlns:xlink="http://www.w3.org/1999/xlink">
    <!-- Generator: Sketch 50.2 (55047) - http://www.bohemiancoding.com/sketch -->
    <title>CTT Puplinge</title>
    <desc>Created with Sketch.</desc>
    <defs></defs>
    <g id="Page-1" stroke="none" stroke-width="1" fill="none" fill-rule="evenodd">
        <path d="M6.4868738,21.6621693 C3.86645688,21.6621693 2.05234929,21.0941154 1.04449663,19.9579906 C0.348162062,19.1517085 0,18.0247628 0,16.5771199 C0,15.9540837 0.0641351166,15.2852461 0.192407274,14.5705869 L1.31936416,8.24863364 C2.14397089,3.61251139 5.12167273,1.29448503 10.252559,1.29448503 C12.3782119,1.29448503 13.990752,1.74801192 15.0902276,2.65507932 C16.1897033,3.56214672 16.7394328,4.80361933 16.7394328,6.37953441 C16.7394328,7.11251817 16.634068,7.84090985 16.4233352,8.56473131 C16.2126023,9.28855276 16.0064537,9.8245391 15.8048832,10.1727064 L15.5025289,10.7224414 L10.6373736,10.7224414 C11.2420852,10.0261069 11.5444364,9.03659365 11.5444364,7.75387208 C11.5444364,7.07586211 11.3703554,6.53987577 11.0221881,6.14589701 C10.6740208,5.75191824 10.1609399,5.55493181 9.48292993,5.55493181 C7.63214594,5.55493181 6.5326868,6.58109367 6.18451952,8.63344819 L5.22248315,14.1857724 C5.13086018,14.6622118 5.08504938,15.129482 5.08504938,15.5875968 C5.08504938,16.79702 5.80885998,17.4017225 7.2565029,17.4017225 C8.99733932,17.4017225 10.0418255,16.4213715 10.3899928,14.4606399 L15.3376084,14.4606399 L15.2001746,15.2577558 C14.4671909,19.5273861 11.5627863,21.6621693 6.4868738,21.6621693 Z M36.9147098,5.77482583 L30.1529685,5.77482583 L27.4317799,21.2773548 L22.4566775,21.2773548 L25.1778661,5.77482583 L18.388638,5.77482583 L19.1582671,1.4868923 L37.6843389,1.4868923 L36.9147098,5.77482583 Z M56.0454902,5.77482583 L49.2837489,5.77482583 L46.5625603,21.2773548 L41.5874579,21.2773548 L44.3086465,5.77482583 L37.5194184,5.77482583 L38.2890475,1.4868923 L56.8151193,1.4868923 L56.0454902,5.77482583 Z M71.4655589,15.2577558 L68.1946352,15.2577558 L67.1226518,21.2773548 L62.1750362,21.2773548 L65.6658539,1.4868923 L74.0493137,1.4868923 C76.1199928,1.4868923 77.5951005,1.9633246 78.474681,2.91620348 C79.1160418,3.64918724 79.4367174,4.58372751 79.4367174,5.71985233 C79.4367174,6.1046688 79.4000687,6.50780382 79.3267703,6.92926948 L78.7770353,10.0352726 C78.5021664,11.5562139 77.6958963,12.8068487 76.358201,13.7872145 C75.0205056,14.7675802 73.3896412,15.2577558 71.4655589,15.2577558 Z M72.3176482,5.77482583 L69.8438404,5.77482583 L68.9367776,10.9698222 L71.3830986,10.9698222 C72.8857153,10.9698222 73.7561205,10.3009846 73.9943402,8.96328923 L74.1867475,7.83633234 C74.2233966,7.671411 74.241721,7.45151917 74.241721,7.17665026 C74.241721,6.90178135 74.1042886,6.59943009 73.8294197,6.2695874 C73.5545507,5.93974471 73.050632,5.77482583 72.3176482,5.77482583 Z M93.0426603,17.0443947 C93.0426603,17.5208342 93.2854575,17.7590503 93.7710593,17.7590503 C94.256661,17.7590503 94.6643771,17.6674287 94.9942198,17.4841828 L94.856786,20.5901859 C93.9772055,21.3048451 92.9876923,21.6621693 91.8882166,21.6621693 C89.8175375,21.6621693 88.6905919,20.8650614 88.507346,19.2708218 C87.4078703,20.8650614 85.9281816,21.6621693 84.0682353,21.6621693 C82.208289,21.6621693 81.003465,21.24071 80.4537272,20.3977786 C80.0872354,19.8663654 79.9039922,19.2616629 79.9039922,18.5836529 C79.9039922,17.9056429 79.9589651,17.2826161 80.0689127,16.7145537 L81.6081709,8.05622637 L86.280919,8.05622637 L84.9890415,15.3677028 C84.9340678,15.6975455 84.9065813,16.0273832 84.9065813,16.3572259 C84.9065813,17.2368064 85.4013379,17.6765901 86.390866,17.6765901 C87.2154727,17.6765901 87.8751482,17.3925631 88.3699122,16.8245007 L89.9366572,8.05622637 L94.6094052,8.05622637 L93.070147,16.7145537 C93.0518225,16.8245013 93.0426603,16.9344472 93.0426603,17.0443947 Z M106.236302,7.69889857 C108.105411,7.69889857 109.397275,8.19365519 110.111934,9.18318326 C110.625023,9.86119323 110.881563,10.7224362 110.881563,11.7669381 C110.881563,12.1884037 110.835752,12.6373496 110.744129,13.113789 L110.194394,16.3297391 C109.882876,18.0705756 109.214039,19.3945076 108.187861,20.301575 C107.161684,21.2086424 105.878982,21.6621693 104.339716,21.6621693 C102.80045,21.6621693 101.728477,21.2498721 101.123766,20.4252654 L99.6394811,28.9186722 L94.966733,28.9186722 L98.649958,8.05622637 L102.882918,8.05622637 L102.745484,8.79836871 C103.60674,8.06538495 104.770334,7.69889857 106.236302,7.69889857 Z M103.37768,17.7040768 C103.890768,17.7040768 104.3672,17.5391579 104.806991,17.2093153 C105.246781,16.8794726 105.521646,16.3847159 105.631593,15.7250306 L105.988921,13.6635241 C106.02557,13.4802781 106.043895,13.2512241 106.043895,12.9763552 C106.043895,12.7014863 105.924787,12.4082972 105.686567,12.0967791 C105.448347,11.785261 105.03605,11.6295043 104.449663,11.6295043 C103.496784,11.6295043 102.873757,11.8585583 102.580564,12.3166731 L101.755961,16.9344477 C102.012505,17.4475363 102.553073,17.7040768 103.37768,17.7040768 Z M117.643305,17.0443947 C117.643305,17.5208342 117.886102,17.7590503 118.371704,17.7590503 C118.857305,17.7590503 119.265021,17.6674287 119.594864,17.4841828 L119.45743,20.5901859 C118.57785,21.3048451 117.588337,21.6621693 116.488861,21.6621693 C114.821323,21.6621693 113.740188,21.2773586 113.245424,20.5077257 C112.933906,20.0129616 112.778149,19.4723942 112.778149,18.8860072 C112.778149,18.2996202 112.814798,17.7865393 112.888096,17.346749 L115.884152,0.41490892 L120.5569,0.41490892 L117.670791,16.7145537 C117.652467,16.8245013 117.643305,16.9344472 117.643305,17.0443947 Z M127.098748,17.7590503 C127.520213,17.7590503 127.895862,17.6674287 128.225705,17.4841828 L128.088271,20.5901859 C127.227015,21.3048451 126.246664,21.6621693 125.147188,21.6621693 C123.47965,21.6621693 122.398515,21.2773586 121.903751,20.5077257 C121.573909,19.994637 121.40899,19.4494885 121.40899,18.8722638 C121.40899,18.2950391 121.445638,17.7865393 121.518937,17.346749 L123.168142,8.05622637 L127.84089,8.05622637 L126.301632,16.7145537 C126.283307,16.8245013 126.274145,16.925285 126.274145,17.016908 C126.274145,17.511672 126.54901,17.7590503 127.098748,17.7590503 Z M123.717877,3.57588556 C123.717877,2.40311155 123.978999,1.54644964 124.50125,1.00587412 C125.0235,0.465298598 125.834352,0.195014893 126.933827,0.195014893 C128.473093,0.195014893 129.242715,0.873014697 129.242715,2.22903464 C129.242715,3.38348406 128.981593,4.22640274 128.459342,4.75781596 C127.937091,5.28922918 127.117078,5.55493181 125.999278,5.55493181 C124.478336,5.55493181 123.717877,4.89525632 123.717877,3.57588556 Z M138.753131,12.8389215 C138.753131,12.0509639 138.372902,11.6569911 137.612431,11.6569911 C136.85196,11.6569911 136.224352,11.941018 135.729588,12.5090804 L134.19033,21.2773548 L129.517582,21.2773548 L131.853956,8.05622637 L136.196863,8.05622637 L135.894509,9.67794482 C136.97566,8.34024946 138.340822,7.67141182 139.990035,7.67141182 C141.639249,7.67141182 142.711221,8.07454684 143.205985,8.88082897 C143.517503,9.3939176 143.67326,9.98029581 143.67326,10.6399812 C143.67326,11.2996666 143.627449,11.9135313 143.535826,12.4815937 L142.793684,16.7145537 C142.775359,16.8245013 142.766197,16.925285 142.766197,17.016908 C142.766197,17.511672 143.041062,17.7590503 143.5908,17.7590503 C144.012265,17.7590503 144.387914,17.6674287 144.717757,17.4841828 L144.580323,20.5901859 C143.719067,21.3048451 142.738716,21.6621693 141.63924,21.6621693 C139.147096,21.6621693 137.901042,20.6176831 137.901042,18.5286794 C137.901042,18.1621875 137.93769,17.7682147 138.010989,17.346749 L138.670671,13.6910108 C138.725645,13.3611681 138.753131,13.0771412 138.753131,12.8389215 Z M158.433647,21.7171428 C158.030506,24.0443662 157.109709,25.8859603 155.671228,27.2419802 C154.232747,28.5980002 152.58814,29.276 150.737356,29.276 C148.886572,29.276 147.553478,28.9370001 146.738033,28.2589901 C145.922589,27.5809801 145.514873,26.6922507 145.514873,25.592775 C145.514873,23.9802108 146.541034,22.5784004 148.593389,21.3873018 C147.035798,20.8925377 146.257015,19.7106192 146.257015,17.8415106 C146.257015,17.3833957 146.302826,16.879477 146.394449,16.3297391 L146.944184,13.113789 C147.237377,11.4645755 147.915377,10.1498057 148.978203,9.16943988 C150.04103,8.18907411 151.419935,7.69889857 153.11496,7.69889857 C154.809985,7.69889857 155.968998,8.11119575 156.592034,8.93580248 L156.756955,8.05622637 L160.852481,8.05622637 L158.433647,21.7171428 Z M151.177144,15.7250306 C151.140495,15.8899519 151.12217,16.1190059 151.12217,16.4121994 C151.12217,16.7053929 151.259603,16.9940009 151.534472,17.2780321 C151.80934,17.5620633 152.27203,17.7040768 152.922553,17.7040768 C153.573076,17.7040768 154.136548,17.4475363 154.612988,16.9344477 L155.437591,12.3166731 C155.181046,11.8585583 154.695452,11.6295043 153.980793,11.6295043 C153.266133,11.6295043 152.707242,11.8127475 152.304101,12.1792394 C151.90096,12.5457313 151.644419,13.0404879 151.534472,13.6635241 L151.177144,15.7250306 Z M151.369551,25.3453943 C152.56065,25.3453943 153.339433,24.2642594 153.705925,22.1019574 L153.980793,20.5077257 C151.433674,21.6988243 150.160134,22.8990672 150.160134,24.1084904 C150.160134,24.4749822 150.265499,24.7727524 150.476232,25.0018098 C150.686964,25.2308673 150.984735,25.3453943 151.369551,25.3453943 Z M167.201921,21.6621693 C163.390405,21.6621693 161.484676,20.3428183 161.484676,17.7040768 C161.484676,17.3375849 161.521325,16.9436121 161.594623,16.5221464 L162.171845,13.113789 C162.483363,11.354628 163.294214,10.0032095 164.604423,9.05949287 C165.914631,8.11577628 167.65086,7.64392507 169.813163,7.64392507 C173.496406,7.64392507 175.338,9.03657331 175.338,11.8219116 C175.338,12.2250527 175.301351,12.6648363 175.228053,13.1412757 L174.898212,15.0928352 L166.514752,15.0928352 L166.404805,15.7250306 C166.368156,15.9449257 166.349832,16.1464932 166.349832,16.3297391 C166.349832,17.3375918 166.945372,17.8415106 168.136471,17.8415106 C168.576261,17.8415106 168.951909,17.7040782 169.263427,17.4292093 C169.574946,17.1543404 169.758189,16.8336648 169.813163,16.4671729 L174.375964,16.5221464 C173.771252,19.9488455 171.379928,21.6621693 167.201921,21.6621693 Z M170.500331,13.4161433 L166.78962,13.4161433 C166.954541,12.7198087 167.252311,12.1975656 167.682939,11.8493983 C168.113567,11.5012311 168.589999,11.32715 169.11225,11.32715 C169.634501,11.32715 170.014731,11.4645824 170.252951,11.7394513 C170.49117,12.0143202 170.610278,12.2846039 170.610278,12.5503106 C170.610278,12.8160172 170.57363,13.1046252 170.500331,13.4161433 Z" id="CTT-Puplinge" fill="#FFFFFF"></path>
    </g>
</svg>